<svg width="345" height="380" viewBox="0 0 345 380" fill="none" xmlns="http://www.w3.org/2000/svg">
<g clip-path="url(#clip0_3319_2343)">
<path d="M320.555 97.3309C290.843 53.5015 216.186 -15.9586 102.609 28.795C-10.9682 73.5486 1.98172 151.115 7.04621 181.135C12.1107 211.155 18.8386 250.095 63.3558 279.193C107.873 308.291 157.695 309.116 210.974 306.589C264.252 304.063 325.497 273.309 337.243 231.705C348.989 190.101 350.265 141.158 320.555 97.3309Z" fill="#FD5103"/>
<path d="M153.228 99.0552C153.228 99.0552 141.655 106.406 142.181 107.718C142.707 109.031 145.6 113.493 145.6 113.493C145.6 113.493 153.866 129.435 164.537 132.392C178.738 136.329 184.262 128.455 188.733 120.318C193.205 112.18 193.993 57.0559 192.415 56.2687C190.837 55.4815 182.421 59.9435 179.791 70.9689C177.161 81.9942 175.057 103.781 173.479 105.093C171.901 106.406 158.488 102.468 158.488 102.468L153.228 99.0552Z" fill="#F2F0EB"/>
<path d="M145.764 112.903C145.764 112.903 148.393 113.763 152.305 112.236C158.66 109.752 158.009 103.397 158.009 103.397" stroke="#DCD8DA" stroke-width="0.914993" stroke-miterlimit="10"/>
<path d="M121.928 95.1184C121.928 95.1184 113.163 93.7175 113.163 96.5175C113.163 99.3183 115.967 100.368 117.72 100.368C119.474 100.368 119.474 102.118 122.63 102.118C125.786 102.118 128.591 103.168 133.151 102.818C137.709 102.468 142.619 105.968 142.619 105.968C142.619 105.968 144.373 109.905 150.597 105.88C152.303 104.778 153.754 103.254 153.491 101.418C153.228 99.5804 151.229 93.3331 149.633 91.9678C147.177 89.8683 121.928 95.1184 121.928 95.1184Z" fill="#F5AA8A"/>
<path d="M119.036 100.281C119.036 100.281 118.511 98.9687 123.771 98.7057C129.031 98.4426 136.658 97.9185 136.658 97.9185" stroke="#CB8469" stroke-width="0.914993" stroke-miterlimit="10" stroke-linecap="round" stroke-linejoin="round"/>
<path d="M130.603 99.3903C149.366 99.3903 164.577 96.289 164.577 92.4634C164.577 88.6379 149.366 85.5366 130.603 85.5366C111.84 85.5366 96.6293 88.6379 96.6293 92.4634C96.6293 96.289 111.84 99.3903 130.603 99.3903Z" fill="#93B3C5"/>
<path d="M153.224 67.1193C143.084 59.0747 130.603 60.113 130.603 60.113C130.603 60.113 118.123 59.0747 107.983 67.1193C97.8428 75.1639 98.6224 91.7719 98.6224 91.7719C98.6224 91.7719 105.035 96.9627 130.603 96.9627C156.171 96.9627 162.583 91.7719 162.583 91.7719C162.583 91.7719 163.364 75.1639 153.224 67.1193Z" fill="#A1C4DA"/>
<path d="M145.632 65.3375C141.292 62.3102 136.868 60.7961 132.964 60.0837C132.332 60.0655 131.806 60.0664 131.417 60.0764C134.095 61.3449 136.859 63.1111 139.474 65.5932C149.862 75.4479 149.063 95.7936 149.063 95.7936C149.063 95.7936 149.058 95.7982 149.056 95.8C154.401 95.0156 157.82 93.98 159.882 93.1535C159.065 88.1289 155.763 72.4068 145.632 65.3375Z" fill="#B3D9ED"/>
<path d="M131.478 60.0757C130.916 60.0876 130.604 60.1131 130.604 60.1131C130.604 60.1131 130.496 60.1049 130.295 60.094C131.164 61.2875 132.016 62.6519 132.827 64.23C137.894 74.0791 137.636 90.7236 137.345 96.8312C139.048 96.7627 140.632 96.6659 142.127 96.5536C141.943 89.7008 140.892 73.4882 135.217 64.703C133.997 62.8181 132.735 61.3021 131.478 60.0757Z" fill="#B3D9ED"/>
<path d="M132.605 58.9326C132.605 56.1482 132.23 53.8916 130.603 53.8916C128.977 53.8916 128.601 56.1482 128.601 58.9326C128.601 60.033 128.563 61.0476 128.656 61.8769C129.279 61.9709 129.931 62.0266 130.603 62.0266C131.274 62.0266 131.926 61.97 132.55 61.8769C132.642 61.0476 132.605 60.033 132.605 58.9326Z" fill="#93B3C5"/>
<path d="M182.782 297.586C182.782 297.586 186.261 298.847 190.969 299.197C195.673 299.55 202.336 297.983 202.336 297.983C202.336 297.983 204.154 308.271 203.413 314.35C203.04 317.403 201.058 317.948 197.062 320.507C194.557 322.118 191.131 325.607 187.209 327.653C183.044 329.814 172.332 329.777 168.064 327.748C159.106 323.496 162.376 318.813 167.639 315.015C169.502 313.676 172.753 310.812 174.385 308.838C179.206 303.029 182.782 297.586 182.782 297.586Z" fill="#63363B"/>
<path d="M189.507 305.711C189.507 305.711 185.064 303.305 180.25 303.714" stroke="#855E59" stroke-width="0.868146" stroke-miterlimit="10"/>
<path d="M186.238 310.392C186.238 310.392 181.798 307.98 176.983 308.394" stroke="#855E59" stroke-width="0.868146" stroke-miterlimit="10"/>
<path d="M202.904 312.371C202.904 312.371 197.614 315.014 194.002 318.298C190.392 321.579 187.37 325.723 182.63 326.912C177.892 328.104 167.368 327.642 162.637 323.459" stroke="#855E59" stroke-width="0.868146" stroke-miterlimit="10"/>
<path d="M177.66 209.153C177.497 198.342 176.355 169.991 178.31 165.566C179.994 161.753 194.914 157.174 202.121 160.568C209.327 163.967 214.754 175.821 214.754 175.821C214.754 175.821 214.095 192.377 211.621 202.501C209.148 212.625 204.44 232.781 204.44 232.781C204.44 232.781 208.985 244.807 208.119 255.866C206.869 271.866 202.325 297.685 202.325 297.685C202.325 297.685 198.387 299.366 192.558 299.246C186.335 299.116 182.53 298.019 182.53 298.019C182.53 298.019 182.737 281.85 180.868 261.981C180.154 254.342 177.824 219.964 177.66 209.153Z" fill="#363B4E"/>
<path d="M229.857 301.428C229.857 301.428 233.395 302.511 238.114 302.63C242.831 302.746 249.407 300.857 249.407 300.857C249.407 300.857 251.733 311.043 251.295 317.151C251.074 320.217 249.121 320.862 245.257 323.611C242.834 325.343 239.583 329.002 235.77 331.235C231.714 333.601 221.014 334.093 216.651 332.277C207.494 328.471 210.528 323.636 215.595 319.582C217.387 318.149 220.494 315.129 222.027 313.08C226.556 307.035 229.857 301.428 229.857 301.428Z" fill="#63363B"/>
<path d="M236.976 309.207C236.976 309.207 232.423 307.025 227.634 307.67" stroke="#855E59" stroke-width="0.868146" stroke-miterlimit="10"/>
<path d="M233.943 314.043C233.943 314.043 229.39 311.853 224.601 312.504" stroke="#855E59" stroke-width="0.868146" stroke-miterlimit="10"/>
<path d="M250.687 315.199C250.687 315.199 245.536 318.101 242.091 321.556C238.65 325.012 235.835 329.3 231.161 330.721C226.484 332.141 215.953 332.204 211.02 328.261" stroke="#855E59" stroke-width="0.868146" stroke-miterlimit="10"/>
<path d="M211.759 210.852C209.943 181.714 211.332 173.125 213.067 168.609C214.56 164.718 230.71 160.47 238.073 163.507C245.439 166.546 251.448 178.115 251.448 178.115C251.448 178.115 252.084 192.255 251.09 199.992C250.095 207.73 245.511 234.525 245.511 234.525C245.511 234.525 250.425 246.316 250.107 257.405C249.652 273.442 249.381 300.562 249.381 300.562C249.381 300.562 245.534 302.434 239.705 302.6C233.482 302.775 229.628 301.868 229.628 301.868C229.628 301.868 222.581 278.636 219.73 258.88C218.637 251.285 212.819 227.86 211.759 210.852Z" fill="#363B4E"/>
<path d="M251.943 131.866C252.302 125.007 251.505 121.81 252.906 109.818C253.769 102.432 257.903 90.9174 258.428 82.7805C258.955 74.6428 261.227 63.242 254.221 58.1051C247.213 52.9682 225.171 49.2815 216.621 49.2112C208.069 49.1391 200.831 49.9683 192.941 54.1673C184.241 58.7983 184.391 66.3543 183.209 79.1048C183.076 80.5294 181.952 95.4552 181.742 101.243C181.245 114.993 180.532 126.847 178.962 134.393C177.391 141.941 174.813 170.641 174.795 172.466C174.795 172.466 181.107 178.415 186.718 179.815C192.328 181.215 197.559 181.903 204.953 182.965C206.4 183.172 208.46 172.465 208.46 172.465L211.615 184.014C211.615 184.014 224.241 186.115 234.059 184.715C243.877 183.314 255.449 177.364 255.449 177.364C255.449 177.364 251.585 138.728 251.943 131.866Z" fill="#3E4858"/>
<path d="M232.257 54.1798C232.257 54.1798 210.219 118.492 208.039 119.181C205.862 119.871 199.247 91.4915 199.166 72.5083C199.083 53.5259 201.978 49.4009 201.978 49.4009L232.257 54.1798Z" fill="#F2F0EB"/>
<path d="M210.913 67.1182C210.913 67.1182 207.757 82.1681 207.757 91.6182C207.757 101.069 208.052 116.275 208.052 116.275" stroke="#DCD8DA" stroke-width="0.914993" stroke-miterlimit="10"/>
<path d="M202.756 98.4574C203.921 111.309 208.234 120.271 207.409 121.021C206.583 121.768 201.446 111.569 198.99 105.619C197.359 101.668 194.05 89.4777 193.296 83.8422C192.542 78.2066 196.781 72.2971 196.781 72.2971C196.781 72.2971 193.717 67.9401 194.06 64.1612C194.403 60.3814 195.797 53.6217 196.884 52.0701C198.726 49.4446 203.459 48.3916 203.459 48.3916C203.459 48.3916 201.591 85.6047 202.756 98.4574Z" fill="#363B4E"/>
<path d="M231.664 50.1387C231.664 50.1387 238.621 50.2336 239.875 51.9012C241.127 53.5697 239.053 62.5503 238.563 66.8014C238.074 71.0525 231.483 74.1858 231.483 74.1858C231.483 74.1858 235.847 81.3865 232.363 88.1316C228.193 96.2 210.248 123.038 207.406 121.018C205.793 119.872 215.96 102.039 223.163 79.6341C228.638 62.6088 231.664 50.1387 231.664 50.1387Z" fill="#363B4E"/>
<path d="M227.375 45.1055C227.375 45.1055 231.019 47.1127 232.004 48.794C232.988 50.4752 232.257 54.1793 232.257 54.1793C232.257 54.1793 230.056 60.4787 227.499 63.2869C224.94 66.096 218.507 71.3735 218.507 71.3735L211.865 60.0714L227.375 45.1055Z" fill="white"/>
<path d="M207.942 45.4326C207.942 45.4326 203.992 46.6499 203.309 48.133C202.624 49.6143 202.009 53.9457 202.009 53.9457C202.009 53.9457 202.284 58.2361 202.891 60.9419C203.566 63.9455 206.153 70.1984 206.153 70.1984L212.344 61.1648L207.942 45.4326Z" fill="white"/>
<path d="M210.562 59.937C210.562 59.937 202.186 53.1956 201.378 57.2302C200.57 61.2649 200.046 68.1953 202.894 68.2246C205.747 68.2538 209.365 64.5607 209.365 64.5607L210.562 59.937Z" fill="#A4273B"/>
<path d="M213.217 60.5694C213.217 60.5694 222.659 55.4288 222.736 59.5429C222.812 63.6579 222.094 70.5701 219.283 70.0907C216.474 69.6113 213.57 65.3328 213.57 65.3328L213.217 60.5694Z" fill="#A4273B"/>
<path d="M211.479 59.5716C209.722 59.6757 208.728 60.031 208.52 61.7551C208.309 63.4775 207.693 65.9468 208.903 66.4126C210.115 66.8783 213.551 67.2957 214.017 66.082C214.482 64.8665 214.356 61.9898 214.295 61.1871C214.234 60.3835 213.234 59.4675 211.479 59.5716Z" fill="#BD273B"/>
<path d="M210.233 133.431C210.182 134.386 210.92 135.204 211.878 135.254C212.837 135.303 213.655 134.567 213.704 133.611C213.755 132.653 213.019 131.837 212.059 131.788C211.101 131.739 210.283 132.474 210.233 133.431Z" fill="#B77E20"/>
<path d="M210.671 150.695C210.62 151.65 211.358 152.466 212.317 152.517C213.277 152.568 214.094 151.831 214.143 150.875C214.193 149.916 213.457 149.101 212.498 149.052C211.539 149.002 210.722 149.737 210.671 150.695Z" fill="#B77E20"/>
<path d="M210.851 167.81C210.8 168.766 211.538 169.585 212.497 169.633C213.455 169.682 214.273 168.946 214.322 167.99C214.374 167.033 213.636 166.217 212.677 166.167C211.718 166.118 210.901 166.852 210.851 167.81Z" fill="#B77E20"/>
<path d="M206.88 123.206C206.354 133.181 205.822 136.89 206.005 145.168C206.164 152.393 208.144 174.112 208.144 174.112" stroke="#59636D" stroke-width="0.930457" stroke-miterlimit="10"/>
<path d="M206.253 39.5984L226.966 34.3921L229.178 49.6101C229.178 49.6101 227.22 51.2566 223.972 53.8064C220.723 56.3515 212.358 60.8976 212.358 60.8976C212.358 60.8976 208.898 56.8529 207.562 55.3022C206.225 53.7498 204.687 49.4165 204.687 49.4165L206.253 39.5984Z" fill="#F5AA8A"/>
<path d="M202.009 8.42634C206.467 0.902269 218.092 0.939711 224.023 4.41545C233.139 9.75965 234.064 22.0946 230.715 32.8524C228.88 38.7628 226.068 42.6897 221.084 45.4193C210.257 51.348 203.415 46.4613 201.27 42.9691C198.892 39.0706 197.901 29.4634 197.99 25.7895C198.113 20.4088 197.55 15.9577 202.009 8.42634Z" fill="#F5AA8A"/>
<path d="M205.258 28.0305C205.193 29.0122 204.377 29.7501 203.439 29.6861C202.493 29.6204 201.784 28.7757 201.848 27.7994C201.921 26.8259 202.738 26.0835 203.676 26.1474C204.613 26.2104 205.324 27.0551 205.258 28.0305Z" fill="#411B00"/>
<path d="M219.028 29.0999C218.966 30.078 218.152 30.8186 217.208 30.7538C216.267 30.6917 215.558 29.847 215.624 28.8689C215.692 27.8954 216.51 27.152 217.449 27.2196C218.392 27.2808 219.1 28.1237 219.028 29.0999Z" fill="#411B00"/>
<path d="M223.286 24.175C220.871 22.5576 216.58 21.9859 214.343 24.1695C214.135 24.3722 214.286 24.7649 214.585 24.7539C215.548 24.7192 216.509 24.8434 217.499 24.7695C219.194 24.6434 220.92 24.7987 222.401 25.6854C223.378 26.2708 224.215 24.7969 223.286 24.175Z" fill="#592221"/>
<path d="M200.993 24.072C201.665 23.5286 203.191 23.7021 203.973 23.7715C204.927 23.8564 206.223 24.0099 207.113 24.3386C207.352 24.4272 207.619 24.1532 207.535 23.9176C206.601 21.2903 201.642 21.1122 199.753 22.8345C198.906 23.608 200.134 24.7669 200.993 24.072Z" fill="#592221"/>
<path d="M211.284 37.9306C211.284 37.9306 211.001 37.9096 210.53 37.7772C210.055 37.6521 209.395 37.4091 208.656 36.9571C208.291 36.7224 207.909 36.4375 207.541 36.0576C207.182 35.6548 206.86 35.2265 206.616 34.5544C206.576 34.4284 206.546 34.327 206.513 34.1736C206.487 33.9873 206.451 33.7873 206.454 33.6028C206.454 33.2412 206.521 32.8476 206.681 32.5042C206.989 31.7955 207.524 31.3828 207.933 31.0257C208.347 30.6714 208.733 30.3773 208.963 30.0869L209.049 29.9773C209.075 29.928 209.017 30.0403 209.024 30.0266L209.027 30.0211L209.033 30.0102L209.044 29.9883L209.067 29.9444L209.11 29.8568C209.184 29.7271 209.198 29.654 209.23 29.5709C209.289 29.4138 209.369 29.1536 209.427 28.9381C209.556 28.4851 209.634 28.0148 209.724 27.5746C209.812 27.1308 209.889 26.7061 209.951 26.3116C210.093 25.5171 210.211 24.8559 210.294 24.3929C210.385 23.9254 210.438 23.6587 210.438 23.6587C210.438 23.6587 210.693 24.7263 210.799 26.3564C210.843 27.1737 210.876 28.1244 210.756 29.1837C210.722 29.4604 210.699 29.7024 210.603 30.0376C210.557 30.201 210.505 30.38 210.457 30.4832L210.421 30.5746L210.402 30.6202L210.393 30.643L210.389 30.6549L210.355 30.7207L210.226 30.9417C209.869 31.5344 209.399 31.9161 209.011 32.2668C208.622 32.6111 208.328 32.9343 208.198 33.1955C208.127 33.3279 208.105 33.4622 208.093 33.6138C208.086 33.6877 208.103 33.7425 208.096 33.8092C208.109 33.906 208.152 34.0485 208.171 34.1663C208.229 34.4539 208.424 34.8649 208.636 35.1809C208.837 35.5279 209.112 35.8229 209.358 36.1087C209.866 36.6722 210.367 37.1151 210.717 37.4329C211.078 37.7498 211.284 37.9306 211.284 37.9306Z" fill="#D27D73"/>
<path d="M198.308 13.4381C198.633 12.6856 197.774 8.79889 198.555 6.97791C199.333 5.16059 203.379 3.0894 207.861 1.50951C212.561 -0.140687 217.946 -0.581775 224.113 0.909524C230.275 2.40539 235.79 6.42633 235.738 12.976C235.7 18.4709 234.886 27.6241 233.722 28.0899C232.554 28.5538 228.198 30.1757 228.198 30.1757C228.198 30.1757 225.561 23.7877 226.344 21.9676C227.123 20.1521 224.56 14.1029 223.37 13.691C222.404 13.734 214.888 15.9312 210.279 16.0298C205.672 16.123 203.067 12.5367 203.044 12.5623C203.044 12.5623 201.543 14.3851 200.616 15.965C199.69 17.5467 197.93 22.132 197.93 22.132C197.93 22.132 196.969 21.1284 196.982 18.6535C196.992 16.1759 197.623 15.0499 198.308 13.4381Z" fill="#592221"/>
<path d="M226.527 31.1007C226.527 31.1007 232.358 24.6853 233.182 29.1437C234.324 35.3417 231.709 37.5983 225.817 38.4184" stroke="#D3ECFE" stroke-width="1.97282" stroke-miterlimit="10" stroke-linecap="round" stroke-linejoin="round"/>
<path d="M230.757 24.2888C234.408 23.0176 236.352 27.307 234.935 32.2932C234.045 35.4238 229.736 36.8612 227.921 35.9681C228.066 32.7791 227.38 25.4651 230.757 24.2888Z" fill="#F5AA8A"/>
<path d="M210.807 31.911C221.221 32.2316 226.673 30.1448 226.673 30.1448C226.673 30.1448 228.649 41.1538 224.775 44.4569C221.144 47.5464 214.759 49.8505 208.791 48.6185C202.824 47.3893 200.722 43.2113 199.266 39.9502C197.803 36.689 197.772 29.2764 197.772 29.2764C197.772 29.2764 200.39 31.5914 210.807 31.911Z" fill="#D3ECFE"/>
<path d="M199.222 31.8174C199.222 31.8174 202.307 34.2155 209.798 34.5196C217.686 34.8365 225.356 32.1635 225.356 32.1635L225.57 34.2009C225.57 34.2009 215.119 36.4849 210.136 36.0831C205.156 35.6794 199.593 34.084 199.593 34.084L199.222 31.8174Z" fill="#B1D7DE"/>
<path d="M200.114 37.9829C200.114 37.9829 202.973 39.75 210 40.0404C217.397 40.3391 225.39 37.7227 225.39 37.7227L225.249 39.6413C225.249 39.6413 214.988 41.8788 210.32 41.5016C205.646 41.129 200.432 39.6286 200.432 39.6286L200.114 37.9829Z" fill="#B1D7DE"/>
<path d="M224.118 42.7557C221.237 43.51 215.949 44.6543 210.926 44.447C205.728 44.236 202.819 43.2151 201.648 42.6973C201.784 43.2142 201.937 43.731 202.105 44.2424C203.71 44.6671 207.638 45.6242 211.24 45.9136C214.389 46.1648 220.057 45.2351 223.432 44.6004C223.757 44.1301 223.964 43.4735 224.118 42.7557Z" fill="#B1D7DE"/>
<path d="M209.946 133.131C209.946 133.131 197.603 126.864 190.666 130.363C183.731 133.865 180.928 138.693 180.347 140.846C179.161 145.21 181.908 144.816 181.908 144.816C181.908 144.816 181.35 145.738 182.42 146.79C183.491 147.844 184.402 148.181 184.402 148.181C184.402 148.181 184.607 149.815 185.08 150.141C185.55 150.469 185.998 150.646 186.359 150.605C187.834 150.436 196.005 144.61 199.855 143.439C201.476 142.944 203.211 144.299 205.267 144.737C208.1 145.34 211.406 143.051 211.406 143.051C211.406 143.051 212.604 135.942 209.946 133.131Z" fill="#F5AA8A"/>
<path d="M188.445 134.708C188.445 134.708 185.848 136.76 184.469 139.17C183.088 141.576 181.908 144.817 181.908 144.817" stroke="#CB8469" stroke-width="0.914993" stroke-miterlimit="10" stroke-linecap="round" stroke-linejoin="round"/>
<path d="M192.827 136.515C192.827 136.515 190.162 137.036 188.461 139.702C186.758 142.368 184.45 147.354 184.45 147.354" stroke="#CB8469" stroke-width="0.914993" stroke-miterlimit="10" stroke-linecap="round" stroke-linejoin="round"/>
<path d="M184.84 148.627C184.84 148.627 188.96 144.633 190.911 142.773C192.551 141.215 195.846 140.456 195.846 140.456" stroke="#CB8469" stroke-width="0.914993" stroke-miterlimit="10" stroke-linecap="round" stroke-linejoin="round"/>
<path d="M250.128 59.172C246.198 60.0286 241.222 66.2404 239.666 77.4703C238.108 88.6994 234.544 110.377 234.141 112.484C233.739 114.592 228.526 117.309 224.102 120.011C221.599 121.54 212.934 128.082 212.934 128.082L207.184 130.283C207.184 130.283 209.118 135.499 209.953 138.11C210.787 140.721 211.13 145.179 211.13 145.179L216.362 143.834C216.362 143.834 225.689 142.909 230.797 141.684C240.226 139.419 254.542 135.93 257.244 129.932C259.946 123.933 261.602 98.3513 262.495 89.4089C263.392 80.4666 261.85 67.6294 259.68 63.992C257.515 60.3546 254.059 58.3154 250.128 59.172Z" fill="#F2F0EB"/>
<path d="M212.776 128.084C212.776 128.084 214.594 131.56 215.549 135.928C216.504 140.295 215.974 143.519 215.974 143.519" stroke="#DCD8DA" stroke-width="0.914993" stroke-miterlimit="10"/>
<path d="M221.547 139.221C221.56 139.946 220.982 140.544 220.255 140.556C219.529 140.569 218.93 139.991 218.918 139.267C218.904 138.542 219.483 137.944 220.209 137.932C220.936 137.919 221.535 138.496 221.547 139.221Z" fill="#DCD8DA"/>
<path d="M217.051 127.747C219.185 129.461 224.793 129.363 224.32 142.323C223.846 155.283 223.181 177.348 222.585 183.309C221.987 189.27 220.679 194.544 223.496 195.195C226.312 195.846 228.724 193.353 228.724 193.353C228.724 193.353 230.876 196.115 235.428 195.685C239.98 195.256 240.627 192.094 243.432 192.045C246.235 191.997 247.967 190.566 249.675 188.085C251.384 185.605 252.493 168.783 252.332 159.685C252.174 150.586 249.649 126.827 244.995 121.308C240.338 115.789 233.469 114.071 231.886 113.836C230.304 113.602 229.059 115.133 225.281 117.102C224.282 117.623 222.174 119.957 222.174 119.957C222.174 119.957 218.329 120.725 216.608 122.505C214.886 124.285 214.916 126.035 217.051 127.747Z" fill="#E9DBDA"/>
<path d="M225.502 124.713C228.21 129.128 231.175 138.178 230.702 151.138C230.228 164.099 229.384 190.891 229.384 190.891" stroke="#D8BBBD" stroke-width="0.914993" stroke-miterlimit="10"/>
<path d="M229.064 117.824C229.064 117.824 235.966 121.378 238.547 133.672C241.132 145.966 241.384 160.402 241.231 166.705C241.079 173.009 241.393 190.856 241.393 190.856" stroke="#D8BBBD" stroke-width="0.914993" stroke-miterlimit="10"/>
<path d="M240.873 131.27C240.873 131.27 244.638 150.894 244.521 159.297C244.418 166.913 244.544 190.538 244.544 190.538" stroke="#D8BBBD" stroke-width="0.914993" stroke-miterlimit="10"/>
<path d="M14.6347 300.321C13.7426 310.111 8.83917 334.139 7.50054 339.035C6.32294 343.349 5.27253 346.154 9.73129 345.709C14.1901 345.265 15.0803 344.375 17.7558 336.809C20.4312 329.245 24.2092 309.634 25.7812 299.433C27.5645 287.863 28.4566 256.716 28.4566 256.716H16.4181C16.4181 256.715 15.5259 290.533 14.6347 300.321Z" fill="#433431"/>
<path d="M59.9984 244.255C59.7322 253.496 59.0294 276.139 58.3267 283.857C57.4355 293.647 52.5312 317.675 51.1934 322.57C50.014 326.884 48.9645 329.689 53.4233 329.244C57.8811 328.8 58.7732 327.91 61.4487 320.345C64.1241 312.781 67.9012 293.168 69.4741 282.967C70.864 273.949 71.7122 253.041 72.0187 244.255H59.9984Z" fill="#433431"/>
<path d="M95.6437 300.321C94.7515 290.532 93.8603 256.714 93.8603 256.714H81.8236C81.8236 256.714 82.7157 287.862 84.499 299.431C86.0719 309.632 89.849 329.245 92.5245 336.808C95.1999 344.373 96.0911 345.264 100.55 345.707C105.008 346.153 103.958 343.348 102.78 339.034C101.44 334.14 96.5358 310.111 95.6437 300.321Z" fill="#433431"/>
<path d="M128.19 283.857C127.485 276.138 126.784 253.495 126.517 244.255H114.499C114.806 253.041 115.654 273.95 117.043 282.967C118.616 293.168 122.393 312.78 125.069 320.345C127.743 327.91 128.636 328.8 133.094 329.244C137.553 329.69 136.503 326.884 135.323 322.57C133.986 317.675 129.082 293.647 128.19 283.857Z" fill="#433431"/>
<path d="M44.0598 152.296C44.0598 152.296 16.8625 150.813 10.1757 152.296C5.37384 153.362 -2.30752 155.263 0.664373 166.535C3.6381 177.808 8.98715 216.371 9.58007 232.39C10.1748 248.409 10.1766 261.462 17.9047 263.242C25.6318 265.022 84.4823 263.242 84.4823 263.242C84.4823 263.242 94.5875 263.243 107.072 258.496C119.556 253.749 127.283 250.783 127.283 250.783C127.283 250.783 135.01 246.037 119.556 244.257C104.099 242.477 51.7896 244.85 51.7896 244.85L44.0598 152.296Z" fill="#563E3E"/>
<path d="M119.555 244.255C104.098 242.476 51.789 244.848 51.789 244.848L44.0609 152.294C44.0609 152.294 16.8637 150.811 10.1769 152.294C9.53548 152.437 8.83826 152.596 8.12548 152.789C7.42643 154.729 7.33584 157.298 8.24534 160.749C11.2191 172.021 16.5681 210.586 17.1629 226.605C17.377 232.409 17.7567 238.025 17.9708 242.455C18.3661 250.632 18.2032 257.603 18.2032 257.603C18.2032 257.603 42.7507 255.701 46.7355 255.823C65.1753 256.385 92.6571 256.269 92.6571 256.268C92.6571 256.268 102.168 257.455 114.652 252.709C120.597 250.448 125.447 248.598 128.914 247.273C128.134 246.122 125.653 244.958 119.555 244.255Z" fill="#6E5550"/>
<path d="M88.2064 169.618C88.2064 169.618 89.8077 178.75 90.4939 183.545C91.1802 188.339 91.6377 200.211 91.6377 200.211L95.7551 201.124L96.9053 209.729C96.9053 209.729 83.174 214.595 78.599 209.8C74.024 205.006 76.0828 168.02 76.0828 168.02L88.2064 169.618Z" fill="#F5AA8A"/>
<path d="M83.4028 200.669C83.4028 200.669 87.9064 199.754 91.409 200.44" stroke="#DC8C7A" stroke-width="0.938508" stroke-miterlimit="10"/>
<path d="M135.442 286.443L142.396 312.768L158.246 309.95L152.442 282.381L135.442 286.443Z" fill="#E49E80"/>
<path d="M72.8047 212.585C72.8047 212.585 135.624 205.474 143.012 219.564C150.399 233.653 157.818 290.766 156.451 292.804C155.083 294.842 135.728 296.939 135.086 294.746C133.916 290.743 122.927 249.377 119.85 245.342C116.778 241.307 92.5338 247.962 80.5053 248.386C68.0303 248.832 49.9994 251.606 45.5452 244.468C41.3893 237.806 41.7709 218.343 41.7709 218.343L72.8047 212.585Z" fill="#448294"/>
<path d="M50.8236 239.651C50.8236 239.651 51.2253 239.937 51.9747 240.392" stroke="#30A1B6" stroke-width="0.914993" stroke-miterlimit="10"/>
<path d="M53.5852 241.317C58.5216 243.995 69.5189 248.673 82.0269 245.683C99.0265 241.619 122.652 234.961 125.622 241.686C128.189 247.492 137.55 280.562 140.057 289.476" stroke="#30A1B6" stroke-width="0.914993" stroke-miterlimit="10" stroke-dasharray="2.79 1.86"/>
<path d="M140.309 290.372C140.547 291.22 140.678 291.688 140.678 291.688" stroke="#30A1B6" stroke-width="0.914993" stroke-miterlimit="10"/>
<path d="M105.978 296.884L109.273 323.94L125.355 323.426L123.369 295.301L105.978 296.884Z" fill="#F5AA8A"/>
<path d="M53.2082 216.422C53.2082 216.422 114.21 220.709 121.375 232.86C129.477 246.598 127.55 304.371 125.918 306.193C124.284 308.014 104.843 306.816 104.504 304.552C103.891 300.423 97.6202 260.366 95.125 255.932C92.6298 251.499 73.1853 253.257 58.5454 253.561C52.123 253.694 40.9171 253.618 35.0603 251.734C29.5264 249.954 24.3283 246.175 22.6584 242.433C19.4532 235.241 22.4846 216.029 22.4846 216.029L53.2082 216.422Z" fill="#4C96A6"/>
<path d="M41.3939 221.353C41.3939 221.353 39.606 231.269 26.1162 232.252" stroke="#6BBACA" stroke-width="0.914993" stroke-miterlimit="10"/>
<path d="M28.5444 238.423C28.5444 238.423 28.9022 238.762 29.5793 239.318" stroke="#6BBACA" stroke-width="0.914993" stroke-miterlimit="10"/>
<path d="M31.0388 240.457C35.5552 243.814 45.8178 250.036 58.6277 248.87C76.019 247.287 97.6933 246.477 99.72 253.56C101.461 259.643 106.738 291.221 108.191 299.999" stroke="#6BBACA" stroke-width="0.914993" stroke-miterlimit="10" stroke-dasharray="2.78 1.86"/>
<path d="M108.343 300.916C108.486 301.784 108.565 302.266 108.565 302.266" stroke="#6BBACA" stroke-width="0.914993" stroke-miterlimit="10"/>
<path d="M158.439 308.71C158.439 308.71 169.501 315.951 180.315 322.39C184.516 324.891 188.368 329.468 183.799 333.139C181.531 334.962 169.249 337.498 160.961 333.758C151.519 329.502 143.41 329.832 140.682 326.638C137.955 323.441 141.654 311.529 141.654 311.529L158.439 308.71Z" fill="#FD5103"/>
<path d="M161.099 319.556C161.099 319.556 153.231 316.096 150.339 312.116L161.099 319.556Z" fill="#FD5103"/>
<path d="M161.099 319.556C161.099 319.556 153.231 316.096 150.339 312.116" stroke="#A16529" stroke-width="0.914993" stroke-miterlimit="10"/>
<path d="M184.147 328.386C184.147 328.386 181.922 331.132 176.219 331.773C170.522 332.418 167.093 332.388 162.072 330.839C157.054 329.287 154.299 327.067 150.125 326.122C145.95 325.173 142.52 325.146 140.615 323.528" fill="#FD5103"/>
<path d="M184.147 328.386C184.147 328.386 181.922 331.132 176.219 331.773C170.522 332.418 167.093 332.388 162.072 330.839C157.054 329.287 154.299 327.067 150.125 326.122C145.95 325.173 142.52 325.146 140.615 323.528" stroke="#A16529" stroke-width="0.914993" stroke-miterlimit="10"/>
<path d="M125.905 322.316C125.905 322.316 135.035 331.871 144.103 340.588C147.63 343.978 150.341 349.305 145.058 351.849C142.433 353.107 129.896 352.799 122.671 347.28C114.445 340.999 106.472 339.487 104.543 335.76C102.611 332.03 108.918 321.263 108.918 321.263L125.905 322.316Z" fill="#FD5103"/>
<path d="M126.033 333.481C126.033 333.481 119.155 328.333 117.241 323.799" stroke="#A16529" stroke-width="0.914993" stroke-miterlimit="10"/>
<path d="M146.476 347.295C146.476 347.295 143.686 349.466 137.986 348.804C132.289 348.139 128.959 347.332 124.42 344.686C119.88 342.041 117.708 339.258 113.855 337.391C110.002 335.525 106.67 334.722 105.18 332.716" stroke="#A16529" stroke-width="0.914993" stroke-miterlimit="10"/>
<path d="M126.125 302.016C126.125 302.016 122.15 303.956 115.672 303.646C109.189 303.335 103.99 301.048 103.99 301.048C103.99 301.048 102.176 304.546 103.819 306.9C105.462 309.255 109.348 310.518 115.697 311.212C122.037 311.903 126.378 310.102 127.433 307.694C128.479 305.29 126.125 302.016 126.125 302.016Z" fill="#8DB1CC"/>
<path d="M156.571 289.022C156.571 289.022 153.095 291.754 146.695 292.811C140.293 293.87 134.511 291.549 134.511 291.549C134.511 291.549 133.689 296.524 135.795 298.483C137.899 300.438 141.96 300.858 148.312 300.202C154.661 299.545 158.526 296.873 159.046 294.299C159.564 291.727 156.571 289.022 156.571 289.022Z" fill="#88A5BD"/>
<path d="M35.199 224.793C30.8565 227.068 23.5951 230.002 21.2929 231.534C18.989 233.067 17.9807 227.075 18.2854 224.031C18.59 220.987 19.505 218.552 19.505 218.552C19.505 218.552 19.0622 210.249 19.2882 206.688C19.5325 202.827 19.7493 199.083 19.7558 195.899C19.8042 176.393 17.0657 147.016 23.0131 137.427C28.9606 127.838 43.9052 125.098 59.6129 125.555C75.3205 126.012 83.2499 132.709 85.0799 139.71C86.9099 146.712 88.4352 156.452 88.4352 160.105C88.4352 163.758 90.5698 168.933 89.6548 170.151C88.7398 171.368 83.2499 171.977 83.2499 171.977C83.2499 171.977 81.1802 183.678 81.1152 186.893C80.8105 201.809 80.7995 211.991 80.7995 211.991C80.7995 211.991 67.1917 214.708 58.9175 216.59C50.6432 218.472 43.2766 220.557 35.199 224.793Z" fill="#5F6775"/>
<path d="M80.2003 137.579C80.2003 137.579 82.335 145.189 82.6397 150.364C82.9453 155.54 84.165 168.02 83.25 171.978" fill="#5F6775"/>
<path d="M80.2003 137.579C80.2003 137.579 82.335 145.189 82.6397 150.364C82.9453 155.54 84.165 168.02 83.25 171.978" stroke="#5F6DA2" stroke-width="0.914993" stroke-miterlimit="10"/>
<path d="M20.1155 220.075C20.1155 220.075 35.6704 212.769 49.3953 210.334L20.1155 220.075Z" fill="#5F6775"/>
<path d="M20.1155 220.075C20.1155 220.075 35.6704 212.769 49.3953 210.334" stroke="#5F6DA2" stroke-width="0.914993" stroke-miterlimit="10"/>
<path d="M66.2741 118.294L66.8478 126.24C66.8478 126.24 67.3364 134.453 60.1372 135.372C52.9399 136.293 47.503 125.66 47.503 125.66L47.4838 112.577L66.2741 118.294Z" fill="#F5AA8A"/>
<path d="M71.6751 86.0345C71.6751 86.0345 78.1542 89.7376 78.0032 98.6014C77.8495 107.465 74.088 108.012 71.0621 105.857C68.0362 103.704 58.771 92.691 58.771 92.691L62.6579 82.6309L71.6751 86.0345Z" fill="#592C30"/>
<path d="M73.101 91.4628C76.7408 101.544 76.3025 121.675 65.6273 122.892C54.9521 124.11 48.8472 122.891 43.5988 106.298C38.3477 89.7002 47.7694 82.7871 52.0479 81.9515C55.373 81.3031 69.4501 81.3844 73.101 91.4628Z" fill="#F5AA8A"/>
<path d="M55.1844 105.145C55.4754 105.993 56.3986 106.446 57.2486 106.156C58.0941 105.866 58.5497 104.943 58.2597 104.098C57.9696 103.249 57.0455 102.799 56.1955 103.088C55.3473 103.375 54.8943 104.298 55.1844 105.145Z" fill="#522C31"/>
<path d="M69.2205 104.551C69.5298 105.451 70.4668 105.945 71.3177 105.658C72.1641 105.367 72.6051 104.405 72.2967 103.501C71.9893 102.6 71.0496 102.107 70.1996 102.396C69.3514 102.683 68.9131 103.651 69.2205 104.551Z" fill="#522C31"/>
<path d="M63.8693 101.211C64.2618 102.038 64.572 102.88 64.8383 103.73C64.9847 104.152 65.0881 104.582 65.2143 105.007C65.3434 105.433 65.4266 105.866 65.5355 106.295L65.1878 105.773C65.584 105.994 65.9235 106.23 66.2702 106.494C66.6125 106.756 66.9565 107.026 67.2694 107.354C67.4268 107.512 67.5769 107.694 67.726 107.877C67.8697 108.079 68.0161 108.264 68.1377 108.519C68.264 108.749 68.3775 109.043 68.3949 109.394C68.4296 109.727 68.3235 110.178 68.1002 110.451L67.931 110.664L67.887 110.714L67.8303 110.765L67.8266 110.768L67.8193 110.773L67.8038 110.784L67.7416 110.828L67.4927 111.004L66.9784 111.339C66.7991 111.446 66.6545 111.57 66.4468 111.665L65.8439 111.939C65.4468 112.122 65.0478 112.288 64.6461 112.398C64.2454 112.519 63.8391 112.626 63.4219 112.689C63.744 112.416 64.055 112.142 64.3725 111.885C64.701 111.638 64.9847 111.363 65.2802 111.122L65.7148 110.759C65.864 110.656 66.004 110.482 66.1495 110.347L66.5813 109.915L66.8055 109.709L66.8622 109.656L66.876 109.644L66.8833 109.637L66.8869 109.635L66.8888 109.633C66.8659 109.654 66.9428 109.583 66.8375 109.679V109.668C66.8385 109.654 66.8403 109.643 66.8449 109.634C66.8687 109.617 66.8504 109.6 66.8449 109.593C66.8568 109.594 66.833 109.563 66.8266 109.542C66.8348 109.529 66.7973 109.476 66.7799 109.434C66.7735 109.393 66.7378 109.335 66.7012 109.276C66.6481 109.163 66.5338 109.032 66.4377 108.907C66.3242 108.78 66.2117 108.653 66.0772 108.529C65.821 108.279 65.5492 108.016 65.2528 107.779C64.9618 107.541 64.6434 107.3 64.3588 107.077L64.0358 106.823L64.0102 106.555C63.9681 106.115 63.9013 105.678 63.8794 105.235C63.8547 104.792 63.808 104.352 63.8043 103.905C63.7677 103.019 63.7769 102.122 63.8693 101.211Z" fill="#D27D73"/>
<path d="M73.5948 101.414C73.6589 101.406 73.7238 101.399 73.7879 101.391C74.3899 101.318 74.5748 100.653 74.088 100.286C72.8958 99.387 70.0666 98.8829 68.8579 99.9358C68.4114 100.324 68.8213 100.91 69.2879 100.971C69.9788 101.063 70.6961 100.812 71.4126 100.867C72.1949 100.927 72.8765 101.202 73.6305 101.369C73.5829 101.007 73.5363 100.646 73.4887 100.285C73.432 100.319 73.3743 100.354 73.3176 100.389C72.8894 100.651 73.022 101.484 73.5948 101.414Z" fill="#592C30"/>
<path d="M59.9525 100.069C59.4108 99.3652 58.1307 99.3442 57.3338 99.2593C56.0015 99.1177 54.2557 99.3743 53.2081 100.246C52.9903 100.427 53.0306 100.785 53.2081 100.972C53.2044 100.926 53.2007 100.879 53.1971 100.833C53.1797 100.935 53.2062 101.066 53.3124 101.115C53.3435 101.13 53.3755 101.144 53.4066 101.159C53.661 101.278 53.9035 101.175 54.0032 100.917C54.0251 100.86 54.0471 100.803 54.0691 100.746C53.9035 100.872 53.7378 100.998 53.5722 101.123C54.7324 101.183 55.7874 100.488 56.9641 100.499C57.3621 100.503 57.762 100.556 58.1582 100.593C58.3549 100.613 59.2214 100.664 59.1994 100.647C59.5819 100.951 60.3139 100.54 59.9525 100.069Z" fill="#592C30"/>
<path d="M66.9555 113.825C66.3205 114.046 64.0019 114.176 63.5106 114.123C61.0611 113.854 59.5862 111.095 58.501 111.839C57.4158 112.583 56.1495 116.818 60.0775 118.033C65.2921 119.648 66.9555 113.825 66.9555 113.825Z" fill="white"/>
<path d="M66.5915 122.783C66.5915 122.783 61.9085 124.092 58.5661 123.405C55.2245 122.719 53.3579 121.773 53.3579 121.773" stroke="#CB8469" stroke-width="0.914993" stroke-miterlimit="10" stroke-linecap="round" stroke-linejoin="round"/>
<path d="M76.5227 85.2406C73.3495 82.1549 70.7738 81.8489 70.7738 81.8489C70.7738 81.8489 67.7397 76.5102 60.9871 74.9267C54.2344 73.344 50.568 79.0773 50.568 79.0773C50.568 79.0773 44.6224 77.5102 40.9752 82.4361C37.3244 87.3639 39.2038 95.0277 44.8704 96.2012C50.536 97.3747 53.0806 91.0552 53.0806 91.0552C53.0806 91.0552 59.9723 93.7674 63.216 93.0259C66.4633 92.2825 68.7983 89.4187 68.7983 89.4187C68.7983 89.4187 71.3832 96.73 76.3937 95.4551C80.1196 94.5062 79.6913 88.3237 76.5227 85.2406Z" fill="#592C30"/>
<path d="M41.6534 86.6162C41.6534 86.6162 35.3848 90.4974 35.5724 95.669C35.7599 100.841 39.0969 103.468 39.0969 103.468C39.0969 103.468 42.5968 104.25 43.9043 106.64C45.2118 109.03 47.04 108.964 48.2157 107.703C48.5579 107.335 48.4802 103.654 48.4802 103.654C48.4802 103.654 49.5086 101.26 49.3769 97.6087C49.2442 93.9586 48.4701 89.4171 48.4701 89.4171L41.6534 86.6162Z" fill="#592C30"/>
<path d="M45.7524 105.264C44.9069 101.935 39.0436 100.328 38.3684 104.329C37.6913 108.333 40.9898 113.081 44.8813 113.501C48.7737 113.916 46.6024 108.589 45.7524 105.264Z" fill="#F5AA8A"/>
<path d="M121.039 207.327C120.419 204.539 117.554 201.186 115.134 200.444C111.869 199.445 106.342 197.751 103.051 198.652C101.915 198.963 96.4256 199.63 94.4282 200.844C92.4307 202.06 94.1326 207.905 95.8876 209.698C96.5006 209.71 97.142 209.72 97.8191 209.728C100.59 209.764 105.45 210.439 106.683 210.568C108.811 210.791 111.053 212.754 112.183 210.775C113.311 208.798 109.44 207.448 110.796 207.287C111.485 207.206 112.886 207.31 114.072 208.656C115.226 209.966 116.303 211.206 117.072 211.879C118.955 213.527 120.2 210.421 120.2 210.421C120.2 210.421 121.648 210.058 121.039 207.327Z" fill="#F5AA8A"/>
<path d="M119.736 209.617C119.736 209.617 118.2 206.471 115.92 204.679C113.642 202.885 109.629 202.867 109.629 202.867" stroke="#DC8C7A" stroke-width="0.938508" stroke-miterlimit="10"/>
<path d="M110.485 207.488C109.713 206.385 105.872 205.462 104.671 205.64" stroke="#DC8C7A" stroke-width="0.938508" stroke-miterlimit="10"/>
<path d="M212.231 354.852C212.231 359.261 198.132 360.872 180.743 360.872C163.348 360.872 149.255 359.261 149.255 354.852C149.255 350.439 163.348 346.863 180.743 346.863C198.132 346.863 212.231 350.439 212.231 354.852Z" fill="#6E5550"/>
<path d="M176.289 213.95V349.817H176.308C176.4 351.187 178.344 352.288 180.743 352.288C183.14 352.288 185.084 351.187 185.176 349.817H185.195V213.95H176.289Z" fill="#433431"/>
<path d="M180.743 212.924H78.6628C78.6628 212.924 78.7141 215.999 78.7671 218.627C78.8083 220.573 79.3601 221.801 80.6328 222.594C81.5981 223.197 85.1126 224.149 92.708 224.645C116.646 226.207 164.396 225.314 180.743 225.445C197.09 225.314 244.84 226.207 268.778 224.645C276.375 224.149 279.889 223.197 280.854 222.594C282.126 221.801 282.678 220.573 282.719 218.627C282.774 215.999 282.823 212.924 282.823 212.924H180.743Z" fill="#957765"/>
<path d="M180.743 210.656C159.135 210.722 78.6628 211.281 78.6628 212.924C78.6628 214.568 87.9427 216.094 180.743 216.094C273.545 216.094 282.823 214.569 282.823 212.924C282.824 211.281 202.353 210.722 180.743 210.656Z" fill="#AE8B76"/>
<path d="M208.281 211.991C208.281 213.157 201.506 214.103 193.148 214.103C184.79 214.103 178.015 213.157 178.015 211.991C178.015 210.825 184.79 209.879 193.148 209.879C201.505 209.879 208.281 210.825 208.281 211.991Z" fill="#F3F3F3"/>
<path d="M193.148 213.066C199.005 213.066 203.753 212.471 203.753 211.737C203.753 211.003 199.005 210.408 193.148 210.408C187.291 210.408 182.543 211.003 182.543 211.737C182.543 212.471 187.291 213.066 193.148 213.066Z" fill="#D7D7D7"/>
<path d="M193.148 195.866C185.581 195.866 181.566 197.034 181.566 197.034C181.566 199.758 184.191 207.154 185.889 208.516C187.588 209.878 189.842 210.683 193.149 210.683C196.455 210.683 198.708 209.878 200.408 208.516C202.105 207.154 204.731 199.758 204.731 197.034C204.73 197.034 200.714 195.866 193.148 195.866Z" fill="#FBFBFB"/>
<path d="M181.825 197.323C181.825 197.745 186.895 198.086 193.148 198.086C199.402 198.086 204.471 197.744 204.471 197.323C204.471 196.901 199.402 196.167 193.148 196.167C186.895 196.167 181.825 196.9 181.825 197.323Z" fill="#EEEEEE"/>
<path d="M201.395 208.26C200.65 208.26 200.181 208.145 200.135 208.133L200.385 207.055C200.407 207.06 202.764 207.616 205.416 205.895C207.02 204.854 208.086 203.335 208.199 201.932C208.263 201.136 208.003 200.443 207.445 199.926C205.898 198.493 203.95 200.101 203.93 200.116L203.267 199.25C204.182 198.481 206.378 197.459 208.145 199.094C208.953 199.842 209.348 200.882 209.254 202.027C209.113 203.774 207.856 205.617 205.972 206.839C204.164 208.015 202.484 208.26 201.395 208.26Z" fill="#FBFBFB"/>
<path d="M193.148 209.541C187.008 209.541 183.776 204.083 182.904 202.819C183.798 205.352 184.967 207.791 185.871 208.516C186.893 209.335 187.517 209.869 187.858 210.167C186.809 210.404 186.171 210.71 186.171 211.046C186.171 211.792 189.295 212.396 193.148 212.396C197.001 212.396 200.124 211.792 200.124 211.046C200.124 210.71 199.487 210.404 198.438 210.167C198.779 209.869 199.404 209.335 200.425 208.516C201.33 207.791 202.498 205.352 203.391 202.819C202.52 204.083 199.286 209.541 193.148 209.541Z" fill="#EEEEEE"/>
<path d="M121.966 212.6C121.966 213.766 115.191 214.711 106.833 214.711C98.4752 214.711 91.6997 213.766 91.6997 212.6C91.6997 211.433 98.4752 210.487 106.833 210.487C115.191 210.487 121.966 211.433 121.966 212.6Z" fill="#F3F3F3"/>
<path d="M117.438 212.345C117.438 213.078 112.69 213.674 106.833 213.674C100.977 213.674 96.2283 213.079 96.2283 212.345C96.2283 211.612 100.976 211.016 106.833 211.016C112.689 211.017 117.438 211.612 117.438 212.345Z" fill="#D7D7D7"/>
<path d="M272.767 274.392C273.033 283.633 273.736 306.277 274.439 313.994C275.33 323.784 280.234 347.812 281.572 352.707C282.751 357.022 283.801 359.827 279.343 359.382C274.885 358.938 273.993 358.047 271.317 350.483C268.642 342.919 264.865 323.305 263.293 313.105C261.903 304.088 261.055 283.179 260.748 274.392H272.767Z" fill="#433431"/>
<path d="M251.02 330.316C251.02 330.316 251.313 332.979 250.877 336.072C250.518 338.621 249.34 341.372 247.724 344.374C246.234 347.14 243.766 348.893 241.378 353.078C239.54 356.302 241.587 359.861 244.693 360.965C250.456 363.018 259.835 356.953 262.743 351.419C265.565 346.052 269.252 343.207 272.337 341.471C275.423 339.738 277.645 334.768 274.378 330.962C273.082 329.449 270.905 327.469 268.518 325.248C265.698 322.618 263.641 320.283 263.641 320.283L251.02 330.316Z" fill="#323D67"/>
<path d="M255.433 344.651C259.994 340.413 262.396 334.997 265.708 331.297C267.526 329.264 268.818 327.504 268.645 325.364C268.603 325.325 268.562 325.287 268.518 325.248C265.697 322.618 263.64 320.283 263.64 320.283L251.019 330.315C251.019 330.315 251.312 332.978 250.877 336.071C250.517 338.62 249.34 341.371 247.724 344.373C247.44 344.899 247.123 345.385 246.776 345.862C247.908 347.707 251.615 348.195 255.433 344.651Z" fill="#DBA990"/>
<path d="M222.549 254.816C216.726 254.883 213.314 256.679 212.388 266.783C211.462 276.888 232.526 312.302 235.563 319.078C238.597 325.854 241.83 333.352 241.83 333.352C241.83 333.352 249.801 333.573 255.892 330.101C261.985 326.63 267.977 319.793 267.977 319.793C267.977 319.793 251.929 287.636 248.094 281.162C244.26 274.687 236.064 262.142 236.064 262.142C236.064 262.142 228.373 254.751 222.549 254.816Z" fill="#212A3F"/>
<path d="M222.025 341.949C222.025 341.949 221.757 344.617 220.688 347.552C219.807 349.97 218.082 352.419 215.878 355.02C213.846 357.419 211.068 358.621 207.861 362.223C205.393 364.992 206.657 368.899 209.465 370.623C214.676 373.825 225.112 369.835 229.107 365.022C232.982 360.355 237.18 358.336 240.56 357.278C243.939 356.221 247.146 351.82 244.741 347.418C243.787 345.674 242.069 343.284 240.198 340.617C237.984 337.459 236.457 334.749 236.457 334.749L222.025 341.949Z" fill="#43528B"/>
<path d="M223.361 356.886C228.706 353.686 232.18 348.886 236.189 345.952C238.39 344.339 240.019 342.884 240.296 340.756C240.263 340.71 240.23 340.663 240.197 340.617C237.983 337.459 236.457 334.749 236.457 334.749L222.026 341.95C222.026 341.95 221.758 344.618 220.69 347.552C219.808 349.971 218.084 352.42 215.879 355.021C215.494 355.476 215.081 355.887 214.644 356.282C215.366 358.319 218.892 359.563 223.361 356.886Z" fill="#F5AA8A"/>
<path d="M209.865 262.2C204.154 261.059 200.445 262.11 197.438 271.803C194.434 281.495 207.679 320.5 209.24 327.758C210.801 335.016 212.405 343.017 212.405 343.017C212.405 343.017 220.154 344.884 226.835 342.749C233.515 340.616 240.798 335.169 240.798 335.169C240.798 335.169 231.784 300.387 229.379 293.261C226.973 286.133 221.563 272.164 221.563 272.164C221.563 272.164 215.575 263.34 209.865 262.2Z" fill="#344163"/>
<path d="M318.131 327.718C319.021 337.508 323.925 361.536 325.264 366.432C326.441 370.746 327.492 373.551 323.033 373.106C318.574 372.662 317.686 371.772 315.01 364.206C312.334 356.642 308.556 337.031 306.984 326.83C305.2 315.259 304.308 284.112 304.308 284.112H316.347C316.348 284.112 317.24 317.93 318.131 327.718Z" fill="#433431"/>
<path d="M237.121 334.567C238.013 324.777 238.905 290.96 238.905 290.96H250.941C250.941 290.96 250.049 322.108 248.266 333.678C246.693 343.879 242.916 363.491 240.241 371.055C237.565 378.62 236.674 379.511 232.216 379.954C227.758 380.4 228.808 377.595 229.986 373.281C231.325 368.386 236.229 344.357 237.121 334.567Z" fill="#433431"/>
<path d="M204.575 318.104C205.28 310.385 205.982 287.742 206.248 278.502H218.266C217.959 287.288 217.112 308.197 215.722 317.215C214.149 327.415 210.372 347.029 207.697 354.593C205.023 362.157 204.131 363.048 199.672 363.491C195.213 363.937 196.264 361.132 197.443 356.817C198.78 351.922 203.683 327.894 204.575 318.104Z" fill="#433431"/>
<path d="M314.286 292.219C310.051 295.171 248.283 293.377 248.283 293.377C248.283 293.377 238.177 293.378 225.693 288.631C213.209 283.884 205.482 280.918 205.482 280.918C205.482 280.918 197.755 276.172 213.209 274.392C228.666 272.612 280.976 274.985 280.976 274.985C280.976 274.985 296.442 276.693 306.05 281.26C315.657 285.826 318.519 289.268 314.286 292.219Z" fill="#563E3E"/>
<path d="M243.805 246.561C243.805 246.561 199.843 254.198 198.641 270.202C197.737 282.233 202.657 277.607 212.265 276.694C221.872 275.781 238.862 275.002 249.817 277.35C258.046 279.115 281.677 280.771 283.179 270.508C284.682 260.246 281.677 249.982 277.47 246.561C273.26 243.14 243.805 246.561 243.805 246.561Z" fill="#344163"/>
<path d="M303.265 257.4C303.265 257.4 301.616 232.79 301.662 228.994C301.757 221.166 303.979 201.775 303.665 186.185C303.245 164.982 295.334 160.322 286.429 156.979C277.524 153.635 263.98 156.179 257.968 157.779C251.955 159.379 241.848 168.629 244.289 187.502C246.729 206.376 245.814 211.855 245.814 221.596C245.814 231.337 238.326 246.196 239.93 249.397C240.597 250.727 251.955 264.601 267.589 265.401C283.222 266.201 303.265 257.4 303.265 257.4Z" fill="#5F6775"/>
<path d="M210.321 218.484C210.321 218.484 205.79 210.409 197.976 208.871C190.159 207.332 183.447 212.488 183.415 213.071C183.409 213.199 182.387 213.678 182.209 214.82C182.031 215.961 182.612 216.305 182.612 216.305C182.612 216.305 180.915 217.016 180.988 218.382C181.062 219.748 181.936 220.032 181.936 220.032C181.936 220.032 180.563 222.335 182.117 222.56C183.462 222.757 184.132 222.201 185.52 222.069C187.271 221.904 189.253 222.056 190.585 222.335C192.964 222.831 193.986 225.815 196.795 226.235C201.354 226.92 205.744 227.006 207.707 225.596C209.672 224.187 210.321 218.484 210.321 218.484Z" fill="#F5AA8A"/>
<path d="M195.844 211.973C195.844 211.973 188.922 210.61 184.039 213.254" stroke="#CB8469" stroke-width="0.914993" stroke-miterlimit="10" stroke-linecap="round" stroke-linejoin="round"/>
<path d="M195.366 215.661C195.366 215.661 187.585 214.103 183.282 216.076" stroke="#CB8469" stroke-width="0.914993" stroke-miterlimit="10" stroke-linecap="round" stroke-linejoin="round"/>
<path d="M194.441 219.163C194.441 219.163 186.758 217.584 182.455 219.559" stroke="#CB8469" stroke-width="0.914993" stroke-miterlimit="10" stroke-linecap="round" stroke-linejoin="round"/>
<path d="M209.824 216.421L206.594 225.636C206.594 225.636 219.278 228.597 232.394 227.38C245.508 226.163 253.683 224.858 256.488 218.857C259.294 212.856 262.169 187.363 261.368 177.762C260.566 168.159 257.098 163.454 251.913 162.846C246.728 162.237 242.763 173.805 241.848 182.328C240.933 190.851 237.578 207.289 237.578 207.289C237.578 207.289 226.598 210.333 222.329 211.551C218.058 212.768 209.824 216.421 209.824 216.421Z" fill="#F5AA8A"/>
<path d="M261.026 142.325L259.539 157.67C259.539 157.67 264.114 159.801 270.519 159.193C276.924 158.584 279.974 154.931 279.974 154.931L276.809 141.375L261.026 142.325Z" fill="#F5AA8A"/>
<path d="M248.172 129.487C248.828 127.916 249.096 122.068 249.545 119.86C252.39 105.849 267.348 104.361 275.938 108.372C284.527 112.383 286.897 130.604 283.593 136.153C280.291 141.706 271.583 145.698 267.713 147.256C263.839 148.814 258.121 151.833 252.063 149.119C248.833 147.671 248.377 139.28 247.915 138.822C246.886 137.807 244.82 136.582 245.121 134.841C246.485 132.591 247.516 131.059 248.172 129.487Z" fill="#F5AA8A"/>
<path d="M253.104 128.414C252.732 127.567 251.761 127.228 250.964 127.664C250.169 128.104 249.816 129.174 250.187 130.019C250.559 130.861 251.532 131.199 252.324 130.763C253.123 130.325 253.474 129.256 253.104 128.414Z" fill="#481609"/>
<path d="M254.844 126.392C254.985 126.403 255.102 126.348 255.203 126.256C255.318 126.15 255.355 125.975 255.317 125.829C255.288 125.723 255.197 125.657 255.166 125.563C255.308 125.995 255.201 125.55 255.053 125.371C254.77 125.031 254.233 124.856 253.835 124.705C252.615 124.241 251.19 124.091 249.921 124.422C248.972 124.669 249.382 126.167 250.326 125.889C251.308 125.601 252.282 125.755 253.258 125.993C253.613 126.08 253.961 126.202 254.316 126.286C254.418 126.309 254.524 126.329 254.628 126.34C254.701 126.357 254.775 126.353 254.848 126.33C255.106 126.244 255.017 126.219 254.582 126.256C254.544 126.113 254.507 125.971 254.468 125.829C254.466 125.835 254.464 125.841 254.462 125.846C254.563 125.745 254.664 125.645 254.766 125.543C254.754 125.548 254.743 125.553 254.731 125.558C254.295 125.74 254.34 126.352 254.844 126.392Z" fill="#954331"/>
<path d="M293.394 153.105C291.258 148.843 291.28 141.863 291.907 132.607C292.332 126.341 290.889 121.78 289.911 119.481C288.765 110.75 282.041 107.077 278.101 105.255C274.004 103.359 265.46 100.946 255.041 107.371C250.656 110.075 248.466 115.119 249.666 118.815C250.868 122.509 254.874 123.457 258.013 127.535C261.15 131.614 258.555 134.639 262.283 138.189C262.87 138.748 263.467 139.384 264.078 140.046C263.887 141.244 263.351 143.695 261.978 145.495C260.094 147.964 260.533 152.045 261.473 155.439C262.414 158.833 264.297 162.844 263.669 165.622C263.042 168.399 259.536 174.414 262.281 179.894C265.026 185.373 269.297 189.026 274.787 186.895C280.276 184.765 283.936 182.025 288.816 181.112C293.696 180.199 299.783 177.589 300.711 171.675C301.642 165.759 295.528 157.366 293.394 153.105Z" fill="#954331"/>
<path d="M259.818 133.588C259.818 133.588 261.369 127.23 265.638 130.883C269.908 134.536 265.035 140.639 261.409 140.445C257.783 140.252 259.818 133.588 259.818 133.588Z" fill="#F5AA8A"/>
<path d="M248.559 141.232C248.559 141.232 250.87 141.013 252.524 140.319C254.41 139.527 255.697 138.291 256.184 139.102C257.099 140.624 257.099 144.885 251.913 144.885C248.545 144.885 248.559 141.232 248.559 141.232Z" fill="white"/>
<path d="M315.201 292.219C322.928 290.439 322.588 278.544 323.184 262.525C323.777 246.507 329.126 207.942 332.1 196.67C335.074 185.398 327.391 183.497 322.588 182.431C318.216 181.46 294.156 183.088 290.038 183.545C285.921 184.002 278.275 185.82 275.856 188.111C272.693 191.107 273.111 228.293 273.111 228.293L268.536 284.913C268.536 284.913 268.536 293.132 284.549 292.676C300.561 292.219 315.201 292.219 315.201 292.219Z" fill="#563E3E"/>
<path d="M260.301 286.381C260.426 286.381 260.426 286.188 260.301 286.188C260.177 286.188 260.177 286.381 260.301 286.381Z" fill="#563E3E"/>
<path d="M268.704 282.843C270.84 282.989 272.971 283.186 275.102 283.382L279.516 228.75C279.516 228.75 279.098 191.563 282.261 188.568C284.68 186.277 292.326 184.458 296.444 184.002C299.608 183.651 314.541 182.61 323.275 182.586C323.041 182.532 322.812 182.48 322.589 182.431C318.216 181.46 294.156 183.088 290.039 183.545C285.921 184.002 278.275 185.82 275.856 188.111C272.693 191.107 273.111 228.293 273.111 228.293L268.704 282.843Z" fill="#6E5550"/>
<path d="M101.612 194.648C109.179 194.648 113.194 195.816 113.194 195.816C113.194 198.54 110.569 205.936 108.87 207.298C107.171 208.66 104.918 209.465 101.611 209.465C98.3041 209.465 96.0514 208.66 94.3513 207.298C92.654 205.936 90.028 198.54 90.028 195.816C90.0298 195.816 94.0457 194.648 101.612 194.648Z" fill="#FBFBFB"/>
<path d="M112.935 196.104C112.935 196.526 107.865 196.868 101.612 196.868C95.3579 196.868 90.2888 196.526 90.2888 196.104C90.2888 195.683 95.3579 194.949 101.612 194.949C107.865 194.949 112.935 195.683 112.935 196.104Z" fill="#EEEEEE"/>
<path d="M93.3649 207.043C94.1097 207.043 94.5781 206.928 94.6248 206.916L94.3741 205.837C94.3521 205.843 91.9951 206.399 89.3435 204.678C87.7395 203.637 86.6735 202.118 86.5601 200.715C86.496 199.919 86.7568 199.226 87.314 198.709C88.8613 197.276 90.8093 198.883 90.8294 198.899L91.4928 198.033C90.5778 197.264 88.3818 196.242 86.614 197.877C85.8061 198.625 85.4127 199.665 85.5051 200.809C85.646 202.556 86.9032 204.4 88.7872 205.622C90.5952 206.796 92.2751 207.043 93.3649 207.043Z" fill="#FBFBFB"/>
<path d="M101.612 208.321C107.751 208.321 110.983 202.864 111.855 201.6C110.961 204.132 109.793 206.572 108.889 207.297C107.867 208.116 107.242 208.649 106.901 208.948C107.95 209.184 108.588 209.49 108.588 209.826C108.588 210.573 105.465 211.178 101.612 211.178C97.7586 211.178 94.6348 210.573 94.6348 209.826C94.6348 209.49 95.2726 209.184 96.3211 208.948C95.9808 208.649 95.3549 208.116 94.3347 207.297C93.4298 206.572 92.2613 204.132 91.3683 201.6C92.2394 202.865 95.472 208.321 101.612 208.321Z" fill="#EEEEEE"/>
<path d="M40.0858 189.165L40.1535 164.889L19.9257 166.377C19.9257 166.377 19.492 196.323 26.0571 201.797C26.0571 201.797 31.8005 201.356 35.8859 198.191C39.9723 195.029 40.0858 189.165 40.0858 189.165Z" fill="#F5AA8A"/>
<path d="M26.4168 202.167C34.014 208.018 71.0913 210.251 71.0913 210.251L72.6075 199.367C72.6075 199.367 50.6275 186.755 45.4514 184.689C40.2753 182.624 35.8101 182.767 35.8101 182.767C35.8101 182.767 29.9971 184.239 27.8643 187.514C25.7314 190.79 21.7357 198.561 26.4168 202.167Z" fill="#F5AA8A"/>
<path d="M93.0119 208.772C93.1821 207.096 91.7318 207.558 89.1277 207.662C89.3327 207.623 89.7225 207.54 89.7225 207.54C89.7225 207.54 93.8235 207.289 93.9232 204.661C94.0541 201.418 91.1444 203.219 87.9785 203.556C87.7763 203.578 87.564 203.59 87.3399 203.593C87.9986 203.5 88.6263 203.393 89.1781 203.27C92.2817 202.596 93.452 201.244 93.086 200.281C91.9972 197.402 90.5991 198.949 87.4295 199.287C86.1476 199.423 84.378 199.136 82.731 198.747C83.1766 198.43 83.8428 198.126 84.6946 198.267C87.4908 198.726 89.7005 196.682 88.791 195.517C87.8797 194.357 83.1602 192.493 78.7545 194.148C74.3469 195.803 69.7894 195.242 67.5861 199.31C65.6856 202.822 65.3004 206.427 67.0782 209.484C68.3739 211.712 74.1036 213.447 77.8075 213.502C79.9366 213.916 82.3861 214.339 84.4787 214.267C87.7443 214.152 89.2577 213.933 89.9101 212.957C90.5606 211.984 90.0629 211.632 89.1909 211.272C89.2064 211.268 89.2257 211.262 89.244 211.262C90.9184 211.07 92.8399 210.449 93.0119 208.772Z" fill="#F5AA8A"/>
<path d="M81.7197 203.025C81.7197 203.025 84.7346 203.623 87.9774 203.555" stroke="#CB8469" stroke-width="0.914993" stroke-miterlimit="10" stroke-linecap="round" stroke-linejoin="round"/>
<path d="M80.3898 207.292C80.3898 207.292 85.5485 208.606 89.7218 207.539" stroke="#CB8469" stroke-width="0.914993" stroke-miterlimit="10" stroke-linecap="round" stroke-linejoin="round"/>
<path d="M79.6266 210.811C79.6266 210.811 84.1384 212.578 89.2413 211.262" stroke="#CB8469" stroke-width="0.914993" stroke-miterlimit="10" stroke-linecap="round" stroke-linejoin="round"/>
<path d="M79.9823 198.157C79.9823 198.157 83.0475 199.385 86.2125 199.541" stroke="#CB8469" stroke-width="0.914993" stroke-miterlimit="10" stroke-linecap="round" stroke-linejoin="round"/>
<path d="M42.6826 143.247C42.6826 143.247 44.7889 171.56 42.775 174.839C40.7584 178.114 18.6558 179.586 16.2677 177.241C13.8795 174.896 16.7828 172.531 15.9593 163.064C14.9876 151.94 18.7427 139.291 24.3855 135.144C35.4349 127.015 42.9562 135.182 42.6826 143.247Z" fill="#5F6775"/>
<path d="M42.2112 141.312C42.2112 141.312 44.7466 144.283 43.645 150.429C42.5451 156.576 40.7362 162.656 41.0262 165.882C41.319 169.107 43.1042 173.215 42.1929 174.837C41.2147 176.579 39.1432 176.579 39.1432 176.579" fill="#5F6775"/>
<path d="M42.2112 141.312C42.2112 141.312 44.7466 144.283 43.645 150.429C42.5451 156.576 40.7362 162.656 41.0262 165.882C41.319 169.107 43.1042 173.215 42.1929 174.837C41.2147 176.579 39.1432 176.579 39.1432 176.579" stroke="#5F6DA2" stroke-width="0.914993" stroke-miterlimit="10"/>
<path d="M38.123 168.249C38.123 168.249 27.7351 165.18 21.2002 164.806L38.123 168.249Z" fill="#5F6775"/>
<path d="M38.123 168.249C38.123 168.249 27.7351 165.18 21.2002 164.806" stroke="#5F6DA2" stroke-width="0.914993" stroke-miterlimit="10"/>
</g>
<defs>
<clipPath id="clip0_3319_2343">
<rect width="345" height="380" fill="white"/>
</clipPath>
</defs>
</svg>
